# xmcd
#
# Track frame offsets:
#	150
#	12381
#	21792
#	37587
#	53906
#	69957
#	80775
#	94953
#	107037
#	122380
#	138552
#	154579
#	169783
#	179894
#	194396
#	207505
#	219917
#
# Disc length: 3104 seconds
#
# Revision: 1
# Processed by: cddbd v1.5.2PL0 Copyright (c) Steve Scherf et al.
# Submitted via: audiograbber 1.83.01
#
DISCID=ea0c1e11
DTITLE=Domingo Rey - Mi Paraguay
DYEAR=1900
DGENRE=Latin
TTITLE0=Alfonso Loma
TTITLE1=Adelita
TTITLE2=Tu Y Yo
TTITLE3=La Mananitas
TTITLE4=Hay Hay mi Paraguay
TTITLE5=Magali
TTITLE6=La Cucaracha
TTITLE7=Colorado
TTITLE8=No te Olvidare
TTITLE9=Gracias otra vez
TTITLE10=Vaya con Dios
TTITLE11=Son tus Perjumenes Mujer
TTITLE12=Che sy Peguara
TTITLE13=La Amo en Silencio
TTITLE14=Son Fantasmas
TTITLE15=Las Nubes Blancas
TTITLE16=Beatriz Yeroky
EXTD=
EXTT0=
EXTT1=
EXTT2=
EXTT3=
EXTT4=
EXTT5=
EXTT6=
EXTT7=
EXTT8=
EXTT9=
EXTT10=
EXTT11=
EXTT12=
EXTT13=
EXTT14=
EXTT15=
EXTT16=
PLAYORDER=
